<?xml version="1.0" encoding="UTF-8" standalone="no"?>
<!-- Created with Inkscape (http://www.inkscape.org/) -->

<svg
   xmlns:osb="http://www.openswatchbook.org/uri/2009/osb"
   xmlns:dc="http://purl.org/dc/elements/1.1/"
   xmlns:cc="http://creativecommons.org/ns#"
   xmlns:rdf="http://www.w3.org/1999/02/22-rdf-syntax-ns#"
   xmlns:svg="http://www.w3.org/2000/svg"
   xmlns="http://www.w3.org/2000/svg"
   xmlns:sodipodi="http://sodipodi.sourceforge.net/DTD/sodipodi-0.dtd"
   xmlns:inkscape="http://www.inkscape.org/namespaces/inkscape"
   width="210mm"
   height="297mm"
   viewBox="0 0 210 297"
   version="1.1"
   id="svg6299"
   inkscape:version="0.92.1 r15371"
   sodipodi:docname="All.svg">
  <defs
     id="defs6293">
    <linearGradient
       gradientTransform="matrix(0.82495816,0.8446196,-0.70710679,0.72395951,-352.58465,2710.2177)"
       osb:paint="solid"
       id="linearGradient19282">
      <stop
         id="stop19284"
         offset="0"
         style="stop-color:#666666;stop-opacity:1;" />
    </linearGradient>
  </defs>
  <sodipodi:namedview
     id="base"
     pagecolor="#ffffff"
     bordercolor="#666666"
     borderopacity="1.0"
     inkscape:pageopacity="0.0"
     inkscape:pageshadow="2"
     inkscape:zoom="14.753151"
     inkscape:cx="-464.39071"
     inkscape:cy="742.94377"
     inkscape:document-units="mm"
     inkscape:current-layer="draw-rectangle-16px"
     showgrid="false"
     inkscape:window-width="1600"
     inkscape:window-height="837"
     inkscape:window-x="-8"
     inkscape:window-y="-8"
     inkscape:window-maximized="1" />
  <metadata
     id="metadata6296">
    <rdf:RDF>
      <cc:Work
         rdf:about="">
        <dc:format>image/svg+xml</dc:format>
        <dc:type
           rdf:resource="http://purl.org/dc/dcmitype/StillImage" />
        <dc:title></dc:title>
      </cc:Work>
    </rdf:RDF>
  </metadata>
  <g
     inkscape:label="Ebene 1"
     inkscape:groupmode="layer"
     id="layer1">
    <g
       transform="matrix(0.26458333,0,0,0.26458333,-205.69464,-73.361302)"
       id="draw-rectangle-16px">
      <rect
         style="fill:none"
         id="rect14161"
         width="16"
         height="16"
         x="318"
         y="620.36218" />
      <path
         inkscape:connector-curvature="0"
         style="fill:url(#linearGradient19282)"
         d="m 326,618.46271 -9.89949,9.89949 9.89949,9.89949 9.89949,-9.89949 z m 0,2.82842 7.07107,7.07107 -7.07107,7.07107 -7.07107,-7.07107 z"
         id="rect14163"
         inkscape:export-xdpi="116.37"
         inkscape:export-ydpi="116.37" />
      <g
         transform="translate(-0.5714357,41.928564)"
         id="draw-rectangle-16px-7">
        <rect
           style="fill:none"
           id="rect14161-0"
           width="16"
           height="16"
           x="318"
           y="620.36218" />
        <path
           inkscape:connector-curvature="0"
           style="fill:url(#linearGradient19282)"
           d="m 319,109 v 14 h 14 v -14 z m 2,2 h 10 v 10 h -10 z"
           transform="translate(0,512.3622)"
           id="rect14163-8" />
      </g>
      <g
         transform="translate(-0.5714357,41.928564)"
         id="draw-ellipse-16px"
         inkscape:export-xdpi="144"
         inkscape:export-ydpi="144">
        <rect
           y="651.36218"
           x="318"
           height="16"
           width="16"
           id="rect14210"
           style="fill:none" />
        <path
           inkscape:connector-curvature="0"
           style="fill:url(#linearGradient19282)"
           d="m 326,139 c -4.4183,0 -8,3.5817 -8,8 0,4.4183 3.5817,8 8,8 4.4183,0 8,-3.5817 8,-8 0,-4.4183 -3.5817,-8 -8,-8 z m 0,2 c 3.3137,0 6,2.6863 6,6 0,3.3137 -2.6863,6 -6,6 -3.3137,0 -6,-2.6863 -6,-6 0,-3.3137 2.6863,-6 6,-6 z"
           transform="translate(0,512.3622)"
           id="path14214" />
      </g>
      <path
         inkscape:connector-curvature="0"
         style="fill:url(#linearGradient19282);stroke-width:1.01184618;paint-order:stroke fill markers"
         d="m 299.83568,638.48633 -9.89949,16.27843 c 6.60003,-0.15064 13.19886,-0.0686 19.79898,0 z m 0,3.24282 6.52881,11.18385 c -4.71415,-0.0719 -8.479,-0.0321 -13.19319,0 z"
         id="rect14163-2"
         inkscape:export-xdpi="116.37"
         inkscape:export-ydpi="116.37"
         sodipodi:nodetypes="cccccccc" />
    </g>
  </g>
</svg>
